<svg xmlns="http://www.w3.org/2000/svg" width="222" height="77" viewBox="0 0 222 77"><path fill="#0b0b15" d="M51.95 1.17L51.95 1.17L43.55 74.71Q43.36 75.83 42.29 75.93L42.29 75.93L32.62 76.46Q31.79 76.46 31.64 75.54L31.64 75.54L21.39 23.39L17.77 74.90Q17.72 76.07 16.50 76.12L16.50 76.12L6.45 76.46Q5.37 76.46 5.37 75.54L5.37 75.54L13.82 1.66Q14.01 0.63 15.09 0.54L15.09 0.54L25 0Q25.68 0 25.90 0.27Q26.12 0.54 26.27 1.17L26.27 1.17L36.18 50.44L39.60 1.66Q39.65 0.59 40.92 0.54L40.92 0.54L50.63 0Q51.95 0 51.95 1.17ZM76.10 76.81Q67.43 76.81 63.40 71.61Q59.38 66.41 59.38 56.45L59.38 56.45Q59.38 51.81 60.40 44.34Q61.43 36.87 62.30 33.47Q63.18 30.08 64.79 26.83Q66.41 23.58 68.60 21.48L68.60 21.48Q73.44 16.80 81.69 16.80L81.69 16.80Q93.41 16.80 96.88 25.39L96.88 25.39Q98.73 29.98 98.73 36.50Q98.73 43.02 97.73 50Q96.73 56.98 95.85 60.33Q94.97 63.67 93.38 66.87Q91.80 70.07 89.60 72.17L89.60 72.17Q84.77 76.81 76.10 76.81ZM84.72 55.42L84.72 55.42Q85.25 52.83 86.11 45.73Q86.96 38.62 86.96 35.21L86.96 35.21Q86.96 26.90 80.96 26.90L80.96 26.90Q78.13 26.90 76.29 29.59Q74.46 32.28 73.34 38.53L73.34 38.53Q71.09 51.22 71.09 59.13Q71.09 67.04 77.05 67.04L77.05 67.04Q79.88 67.04 81.76 64.33Q83.64 61.62 84.72 55.42ZM111.18 17.58L115.82 17.43Q116.94 6.69 117.29 6.32Q117.63 5.96 118.31 5.91L118.31 5.91L127.64 5.57Q128.96 5.66 128.96 6.79L128.96 6.79Q128.03 12.21 127.39 17.19L127.39 17.19L138.77 16.80Q139.94 16.85 139.94 18.07L139.94 18.07L138.57 25.83Q138.38 27.00 137.35 27.05L137.35 27.05L126.17 27.49Q122.85 57.37 122.85 60.45L122.85 60.45Q122.85 66.16 127.73 66.16L127.73 66.16Q130.22 66.16 132.57 65.38Q134.91 64.60 135.50 64.60L135.50 64.60Q136.52 64.60 136.52 65.87L136.52 65.87L135.50 74.41Q135.40 75.15 135.13 75.49Q134.86 75.83 132.74 76.32Q130.62 76.81 125.49 76.81L125.49 76.81Q117.97 76.81 114.36 73.32Q110.74 69.82 110.74 62.89Q110.74 55.96 114.60 27.64L114.60 27.64L109.81 27.83Q108.59 27.78 108.59 26.61L108.59 26.61L109.91 18.75Q110.06 17.63 111.18 17.58L111.18 17.58ZM147.68 67.11Q146.53 64.21 146.12 61.35Q145.70 58.50 145.70 53.52Q145.70 48.54 146.78 41.21L146.78 41.21Q150.34 16.80 168.95 16.80L168.95 16.80Q176.12 16.80 179.93 21.73Q183.74 26.66 183.74 34.52Q183.74 42.38 182.76 49.80L182.76 49.80Q182.62 51.12 181.25 51.17L181.25 51.17L157.13 52.00Q157.08 52.73 157.08 53.96L157.08 53.96Q157.08 59.47 159.01 62.70Q160.94 65.92 164.84 65.92Q168.75 65.92 172.09 64.77Q175.44 63.62 176.03 63.62Q176.61 63.62 177.05 64.01Q177.49 64.40 177.49 65.09L177.49 65.09L176.51 73.68Q176.46 74.41 176.25 74.63Q176.03 74.85 175.39 75.10L175.39 75.10Q169.48 76.81 164.01 76.81Q158.54 76.81 155.52 75.49Q152.49 74.17 150.66 72.09Q148.83 70.02 147.68 67.11ZM158.30 39.75L158.30 39.75L157.86 42.87L170.61 42.24Q171.44 42.19 171.68 41.94L171.68 41.94Q172.41 41.21 172.41 37.92Q172.41 34.62 172.19 33.28Q171.97 31.93 171.44 30.52L171.44 30.52Q170.31 27.39 167.60 27.39Q164.89 27.39 163.33 28.32L163.33 28.32Q159.86 30.47 158.30 39.75ZM219.82 28.61L219.82 28.61L214.31 28.37Q211.96 28.37 210.62 29.44Q209.28 30.52 209.28 32.54Q209.28 34.57 210.01 37.01L210.01 37.01Q210.99 40.28 213.40 44.63Q215.82 48.97 216.75 50.78L216.75 50.78Q219.58 56.40 219.58 61.47L219.58 61.47Q219.58 68.85 215.26 72.83Q210.94 76.81 202.15 76.81L202.15 76.81Q197.80 76.81 195.21 76.34Q192.63 75.88 192.36 75.61Q192.09 75.34 192.09 74.76L192.09 74.76L193.36 65.72Q193.46 64.50 194.21 64.50Q194.97 64.50 197.12 65.04Q199.27 65.58 200.88 65.58L200.88 65.58Q206.84 65.58 206.84 60.84L206.84 60.84Q206.84 57.47 205.40 54.54Q203.96 51.61 202.27 48.49Q200.59 45.36 199.66 43.48Q198.73 41.60 197.73 38.28Q196.73 34.96 196.73 32.03L196.73 32.03Q196.73 25.20 200.81 21.00Q204.88 16.80 212.70 16.80L212.70 16.80Q217.72 16.80 220.56 17.29L220.56 17.29Q221.78 17.48 221.78 18.55L221.78 18.55L220.70 27.25Q220.70 28.61 219.82 28.61Z"></path></svg>